<svg width="1920" height="368" viewBox="0 0 1920 368" fill="none" xmlns="http://www.w3.org/2000/svg">
<path d="M1004.98 366.139L1125.38 245.731H1846.9L1726.49 366.139H1004.98Z" fill="#00B43F" stroke="#A3FFC3" stroke-width="3"/>
<path d="M1211.67 290.194L1355.92 145.944H2220.3L2076.05 290.194H1211.67Z" fill="#003D15" stroke="#00B43F" stroke-width="3"/>
<path d="M-134.379 211.225L-8.80858 85.6543H743.64L618.07 211.225H-134.379Z" fill="#00B43F" stroke="#A3FFC3" stroke-width="3"/>
<path d="M1143.77 341.781L1222.62 262.927H1695.14L1616.29 341.781H1143.77Z" fill="#003D15" stroke="#00B43F" stroke-width="3"/>
<path d="M76.9071 351.689L197.056 231.541H917.015L796.866 351.689H76.9071Z" fill="#003D15" stroke="#00B43F" stroke-width="3"/>
<path d="M1354.31 249.392L1396.98 206.719H1652.69L1610.02 249.392H1354.31Z" fill="#00B43F" stroke="#A3FFC3" stroke-width="3"/>
<path d="M1435.08 71.4785L1466.2 40.3564H1652.69L1621.57 71.4785H1435.08Z" fill="#00B43F" stroke="#A3FFC3" stroke-width="3"/>
<path d="M37.2305 125.064L125.679 36.6162H655.682L567.234 125.064H37.2305Z" fill="#003D15" stroke="#00B43F" stroke-width="3"/>
<path d="M291.952 310.203L391.754 210.401H989.791L889.989 310.203H291.952Z" fill="#00B43F" stroke="#A3FFC3" stroke-width="3"/>
<path d="M496.961 82.7336L561.622 18.0732H949.083L884.423 82.7336H496.961Z" fill="#00B43F" stroke="#A3FFC3" stroke-width="3"/>
<g filter="url(#filter0_d_358_2662)">
<path d="M187.93 282.701L409.467 61.1641H1736.97L1515.44 282.701H187.93Z" fill="#071838"/>
<path d="M187.93 282.701L409.467 61.1641H1736.97L1515.44 282.701H187.93Z" stroke="#45D62F" stroke-width="3"/>
</g>
<defs>
<filter id="filter0_d_358_2662" x="125.309" y="0.664062" width="1674.29" height="342.537" filterUnits="userSpaceOnUse" color-interpolation-filters="sRGB">
<feFlood flood-opacity="0" result="BackgroundImageFix"/>
<feColorMatrix in="SourceAlpha" type="matrix" values="0 0 0 0 0 0 0 0 0 0 0 0 0 0 0 0 0 0 127 0" result="hardAlpha"/>
<feOffset/>
<feGaussianBlur stdDeviation="29.5"/>
<feComposite in2="hardAlpha" operator="out"/>
<feColorMatrix type="matrix" values="0 0 0 0 0.270588 0 0 0 0 0.839216 0 0 0 0 0.184314 0 0 0 0.5 0"/>
<feBlend mode="normal" in2="BackgroundImageFix" result="effect1_dropShadow_358_2662"/>
<feBlend mode="normal" in="SourceGraphic" in2="effect1_dropShadow_358_2662" result="shape"/>
</filter>
</defs>
</svg>
