<svg viewBox="0 0 24 25" fill="none" xmlns="http://www.w3.org/2000/svg">
<g clip-path="url(#clip0_404_3996)">
<path fill-rule="evenodd" clip-rule="evenodd" d="M0 20.5C0 19.3954 0.89543 18.5 2 18.5H4C5.10457 18.5 6 19.3954 6 20.5V22.5C6 23.6046 5.10457 24.5 4 24.5H2C0.89543 24.5 0 23.6046 0 22.5V20.5ZM4 20.5H2V22.5H4V20.5Z"/>
<path fill-rule="evenodd" clip-rule="evenodd" d="M4.20361 21.7019L7.95361 17.9619L9.36594 19.378L5.61594 23.118L4.20361 21.7019Z"/>
<path fill-rule="evenodd" clip-rule="evenodd" d="M1.38184 18.8838L5.12184 15.1338L6.53794 16.5461L2.79794 20.2961L1.38184 18.8838Z"/>
<path fill-rule="evenodd" clip-rule="evenodd" d="M23.7067 0.792912C23.9487 1.03482 24.0501 1.3836 23.9757 1.71752L22.3557 8.98752C22.3031 9.22364 22.1667 9.43268 21.9717 9.57591L11.5317 17.2459C11.0866 17.5729 10.4607 17.4772 10.1337 17.0321C9.80676 16.587 9.90249 15.9611 10.3476 15.6341L20.4852 8.18629L21.6814 2.8183L16.3134 4.01447L8.86553 14.1521C8.53854 14.5972 7.91265 14.6929 7.46757 14.3659C7.02249 14.0389 6.92676 13.413 7.25375 12.968L14.9237 2.52795C15.067 2.333 15.276 2.19657 15.5121 2.14396L22.7821 0.523958C23.1161 0.44955 23.4648 0.551005 23.7067 0.792912Z"/>
<path fill-rule="evenodd" clip-rule="evenodd" d="M5.96496 13.293C5.83355 13.293 5.70342 13.3189 5.58202 13.3692C5.46062 13.4195 5.35033 13.4933 5.25746 13.5863L5.12417 13.7195L10.78 19.3753L10.9129 19.2424C11.0058 19.1496 11.08 19.0389 11.1303 18.9175C11.1806 18.7961 11.2065 18.666 11.2065 18.5345C11.2065 18.4031 11.1806 18.273 11.1303 18.1516C11.08 18.0302 11.0062 17.9199 10.9132 17.827L6.67285 13.5866C6.57998 13.4937 6.4693 13.4195 6.3479 13.3692C6.2265 13.3189 6.09638 13.293 5.96496 13.293ZM12.3267 20.657L11.4871 21.4966C11.2995 21.6842 11.0452 21.7895 10.78 21.7895C10.5147 21.7895 10.2604 21.6842 10.0729 21.4966L3.00285 14.4266C2.61233 14.0361 2.61233 13.403 3.00285 13.0124L3.84246 12.1728C4.121 11.8941 4.45212 11.6726 4.81614 11.5217C5.18033 11.3707 5.57071 11.293 5.96496 11.293C6.35921 11.293 6.74959 11.3707 7.11378 11.5217C7.4778 11.6726 7.80853 11.8937 8.08707 12.1724L12.3267 16.412C12.6056 16.6907 12.8269 17.0215 12.9779 17.3857C13.1288 17.7499 13.2065 18.1403 13.2065 18.5345C13.2065 18.9288 13.1288 19.3192 12.9779 19.6834C12.8269 20.0476 12.6056 20.3784 12.3267 20.657Z"/>
</g>
<defs>
<clipPath id="clip0_404_3996">
<rect width="24" height="24" transform="translate(0 0.5)"/>
</clipPath>
</defs>
</svg>
