<svg viewBox="0 0 19 17" fill="none" xmlns="http://www.w3.org/2000/svg">
<path d="M11.8853 3.04116H4.02584L4.8229 1.85673C4.92921 1.70004 4.99083 1.51735 5.00112 1.32828C5.01142 1.13921 4.97001 0.950912 4.88134 0.783607C4.79267 0.616303 4.6601 0.476317 4.49786 0.37869C4.33562 0.281063 4.14985 0.229483 3.9605 0.229492H3.95832C3.788 0.22948 3.61986 0.267781 3.46636 0.341558C3.31285 0.415334 3.1779 0.522698 3.07151 0.655697L0.619199 3.72154C0.542038 3.81799 0.5 3.93784 0.5 4.06135C0.5 4.18487 0.542038 4.30472 0.619199 4.40117L3.07178 7.46681C3.17816 7.59982 3.31311 7.7072 3.46662 7.78098C3.62013 7.85477 3.78827 7.89309 3.95859 7.89308H3.9605C4.14984 7.89308 4.3356 7.8415 4.49782 7.74388C4.66005 7.64625 4.79262 7.50628 4.88129 7.33898C4.96995 7.17169 5.01137 6.9834 5.00108 6.79434C4.99079 6.60528 4.9292 6.4226 4.8229 6.26592L4.02564 5.08107H11.8853C13.0986 5.08107 14.2622 5.56306 15.1202 6.42101C15.9781 7.27895 16.4601 8.44258 16.4601 9.6559C16.4601 10.8692 15.9781 12.0328 15.1202 12.8908C14.2622 13.7487 13.0986 14.2307 11.8853 14.2307H9.66074C9.39024 14.2307 9.13081 14.3382 8.93953 14.5295C8.74825 14.7207 8.64079 14.9802 8.64079 15.2507C8.64079 15.5212 8.74825 15.7806 8.93953 15.9719C9.13081 16.1632 9.39024 16.2706 9.66074 16.2706H11.8853C13.6396 16.2706 15.3221 15.5737 16.5626 14.3332C17.8031 13.0927 18.5 11.4102 18.5 9.6559C18.5 7.90156 17.8031 6.21908 16.5626 4.97857C15.3221 3.73807 13.6396 3.04116 11.8853 3.04116Z"/>
</svg>
