<svg viewBox="0 0 15 19" fill="none" xmlns="http://www.w3.org/2000/svg">
<path fill-rule="evenodd" clip-rule="evenodd" d="M4.67871 14.5481V1.61865H13.3662V14.5481H4.67871ZM3.17871 1.11865C3.17871 0.566367 3.62643 0.118652 4.17871 0.118652H13.8662C14.4185 0.118652 14.8662 0.566368 14.8662 1.11865V15.0481C14.8662 15.6004 14.4185 16.0481 13.8662 16.0481H11.0747V17.9249C11.0747 18.4772 10.627 18.9249 10.0747 18.9249H1.63965C1.08736 18.9249 0.639648 18.4772 0.639648 17.9249V5.70247C0.639648 5.15019 1.08736 4.70247 1.63965 4.70247H3.16699V6.20247H2.13965V17.4249H9.57471V16.0481H4.17871C3.62643 16.0481 3.17871 15.6004 3.17871 15.0481V1.11865Z"/>
</svg>
