<svg viewBox="0 0 49 31" fill="none" xmlns="http://www.w3.org/2000/svg">
<path d="M6.48373 30.7848C8.84137 30.7848 10.4545 29.9162 11.8903 28.179L14.9039 24.5627C15.347 24.0487 15.8256 23.8005 16.3397 23.8005H32.3646C32.8786 23.8005 33.3572 24.0487 33.8004 24.5627L36.8139 28.179C38.2498 29.9162 39.8629 30.7848 42.2205 30.7848C46.0672 30.7848 48.673 28.2321 48.673 24.2614C48.673 22.5596 48.283 20.6097 47.6272 18.4293C46.599 14.9904 44.8086 10.3106 43.0891 6.69433C41.6533 3.66308 40.891 2.24495 37.3103 1.42953C34.1195 0.702739 29.7233 0.224121 24.3521 0.224121C18.981 0.224121 14.5848 0.702739 11.4117 1.42953C7.81322 2.24495 7.05098 3.66308 5.61513 6.69433C3.89565 10.3106 2.10526 14.9904 1.07712 18.4293C0.421235 20.6097 0.03125 22.5596 0.03125 24.2614C0.03125 28.2321 2.63706 30.7848 6.48373 30.7848ZM10.7381 12.1718C10.7381 11.3032 11.2699 10.7537 12.174 10.7537H15.1343V7.89974C15.1343 7.01341 15.6484 6.46388 16.517 6.46388C17.3501 6.46388 17.8819 7.01341 17.8819 7.89974V10.7537H20.665C21.6222 10.7537 22.1895 11.3032 22.1895 12.1718C22.1895 13.0582 21.6222 13.6077 20.665 13.6077H17.8819V16.4794C17.8819 17.3657 17.3501 17.9153 16.517 17.9153C15.6484 17.9153 15.1343 17.3657 15.1343 16.4794V13.6077H12.174C11.2699 13.6077 10.7381 13.0582 10.7381 12.1718ZM32.205 9.54831C32.205 8.16564 33.2686 7.08431 34.6336 7.08431C36.0162 7.08431 37.0621 8.16564 37.0621 9.54831C37.0621 10.9133 36.0162 11.9591 34.6336 11.9591C33.2686 11.9591 32.205 10.9133 32.205 9.54831ZM27.2593 14.5295C27.2593 13.1468 28.3229 12.0832 29.6878 12.0832C31.0528 12.0832 32.1164 13.1468 32.1164 14.5295C32.1164 15.9122 31.0528 16.958 29.6878 16.958C28.3229 16.958 27.2593 15.9122 27.2593 14.5295Z"/>
</svg>
