<svg viewBox="0 0 24 24" fill="none" xmlns="http://www.w3.org/2000/svg">
<path d="M14.0001 16C13.9001 16 13.7001 16 13.6001 16C12.7001 15.9 11.9001 15.7 11.1001 15.3C10.3001 14.9 9.70007 14.3 9.20007 13.6C8.90007 13.2 9.00007 12.5 9.40007 12.2C9.80007 11.9 10.5001 12 10.8001 12.4C11.1001 12.9 11.6001 13.2 12.1001 13.5C12.6001 13.8 13.2001 13.9 13.7001 14C14.3001 14 14.8001 14 15.4001 13.8C15.9001 13.6 16.4001 13.3 16.8001 12.9L19.8001 9.9C20.6001 9.1 21.0001 8 21.0001 7C21.0001 5.9 20.6001 4.9 19.8001 4.2C19.1001 3.4 18.1001 3 17.0001 3C15.9001 3 14.9001 3.4 14.2001 4.1L12.5001 5.8C12.1001 6.2 11.5001 6.2 11.1001 5.8C10.7001 5.4 10.7001 4.8 11.1001 4.4L12.8001 2.7C13.9001 1.6 15.4001 1 17.0001 1C18.6001 1 20.1001 1.6 21.2001 2.8C22.4001 3.9 23.0001 5.4 23.0001 7C23.0001 8.6 22.4001 10.1 21.3001 11.2L18.3001 14.2C17.7001 14.8 17.0001 15.3 16.1001 15.6C15.5001 15.9 14.7001 16 14.0001 16Z"/>
<path d="M7 23C5.4 23 3.9 22.4 2.7 21.2C1.6 20.1 1 18.6 1 17C1 15.4 1.6 13.9 2.7 12.8L5.7 9.8C6.3 9.2 7 8.7 7.9 8.4C8.7 8.1 9.5 8 10.4 8C11.3 8.1 12.1 8.3 12.9 8.7C13.7 9.1 14.3 9.7 14.8 10.4C15.1 10.8 15 11.5 14.6 11.8C14.2 12.1 13.5 12 13.2 11.6C12.9 11.1 12.4 10.8 11.9 10.5C11.4 10.2 10.8 10.1 10.3 10C9.7 10 9.2 10 8.6 10.2C8.1 10.4 7.6 10.7 7.2 11.1L4.2 14.1C3.4 14.9 3 16 3 17C3 18.1 3.4 19.1 4.2 19.8C4.9 20.6 5.9 21 7 21C8.1 21 9.1 20.6 9.8 19.9L11.5 18.2C11.9 17.8 12.5 17.8 12.9 18.2C13.3 18.6 13.3 19.2 12.9 19.6L11.2 21.3C10.1 22.4 8.6 23 7 23Z"/>
</svg>
