<svg viewBox="0 0 17 17" xmlns="http://www.w3.org/2000/svg">
<path d="M8.47755 0.281372C3.94523 0.281372 0.268066 3.95854 0.268066 8.49086C0.268066 13.0232 3.94523 16.7003 8.47755 16.7003C13.0099 16.7003 16.687 13.0232 16.687 8.49086C16.687 3.95854 13.0099 0.281372 8.47755 0.281372ZM8.221 13.2797C8.05187 13.2797 7.88654 13.2296 7.74591 13.1356C7.60528 13.0416 7.49567 12.9081 7.43095 12.7518C7.36622 12.5956 7.34929 12.4236 7.38228 12.2577C7.41528 12.0919 7.49672 11.9395 7.61632 11.8199C7.73591 11.7003 7.88829 11.6188 8.05417 11.5858C8.22006 11.5528 8.392 11.5698 8.54826 11.6345C8.70452 11.6992 8.83807 11.8088 8.93204 11.9495C9.02601 12.0901 9.07616 12.2554 9.07616 12.4246C9.07616 12.6514 8.98606 12.8689 8.82569 13.0293C8.66532 13.1896 8.44781 13.2797 8.221 13.2797ZM9.65082 8.91843C8.95772 9.38364 8.86237 9.80993 8.86237 10.2012C8.86237 10.3599 8.7993 10.5122 8.68704 10.6244C8.57478 10.7367 8.42252 10.7998 8.26376 10.7998C8.105 10.7998 7.95274 10.7367 7.84048 10.6244C7.72822 10.5122 7.66515 10.3599 7.66515 10.2012C7.66515 9.26434 8.09615 8.51951 8.98295 7.92389C9.80732 7.3706 10.2734 7.01999 10.2734 6.24907C10.2734 5.72486 9.97407 5.32678 9.35451 5.03218C9.20871 4.96292 8.88418 4.89536 8.48482 4.90006C7.9837 4.90648 7.5946 5.0262 7.29487 5.26735C6.72962 5.72229 6.68173 6.21743 6.68173 6.2247C6.67794 6.30331 6.6587 6.3804 6.62511 6.45158C6.59153 6.52275 6.54426 6.58662 6.48599 6.63952C6.42772 6.69243 6.35961 6.73334 6.28553 6.75992C6.21145 6.7865 6.13287 6.79823 6.05426 6.79444C5.97565 6.79065 5.89855 6.77142 5.82738 6.73783C5.7562 6.70425 5.69234 6.65697 5.63943 6.59871C5.58652 6.54044 5.54561 6.47233 5.51903 6.39825C5.49245 6.32417 5.48072 6.24558 5.48451 6.16697C5.48921 6.06307 5.56147 5.12711 6.54362 4.33694C7.05286 3.92732 7.70064 3.71439 8.46772 3.70498C9.01074 3.69857 9.52084 3.7905 9.86675 3.95383C10.9019 4.44341 11.4706 5.25966 11.4706 6.24907C11.4706 7.69556 10.5038 8.34505 9.65082 8.91843Z"/>
</svg>
