<svg viewBox="0 0 28 24" fill="none" xmlns="http://www.w3.org/2000/svg">
<path d="M0.887314 6.20981C0.887314 4.69546 1.44336 3.41773 2.55546 2.37662C3.66757 1.3355 4.98079 0.814941 6.49514 0.814941C8.03315 0.814941 9.34638 1.3355 10.4348 2.37662C11.5469 3.41773 12.103 4.69546 12.103 6.20981C12.103 6.94333 11.9847 7.67684 11.748 8.41035C11.5351 9.1202 11.1328 10.0903 10.5413 11.3207L4.89797 23.2817H0L2.83941 10.327C2.24786 9.87738 1.77463 9.29767 1.4197 8.58782C1.06478 7.87796 0.887314 7.0853 0.887314 6.20981ZM16.3976 6.20981C16.3976 4.69546 16.9536 3.41773 18.0657 2.37662C19.2015 1.3355 20.5147 0.814941 22.0054 0.814941C23.5671 0.814941 24.8921 1.3355 25.9806 2.37662C27.069 3.41773 27.6132 4.69546 27.6132 6.20981C27.6132 6.94333 27.5186 7.67684 27.3293 8.41035C27.14 9.1202 26.7496 10.0903 26.158 11.3207L20.4437 23.2817H15.5457L18.4561 10.327C17.8409 9.87738 17.344 9.29767 16.9654 8.58782C16.5869 7.87796 16.3976 7.0853 16.3976 6.20981Z"/>
</svg>
