<svg viewBox="0 0 19 18" xmlns="http://www.w3.org/2000/svg">
<path d="M10.6191 2.14972L12.2118 5.0581C12.4265 5.46033 13.0026 5.84192 13.4883 5.92443L16.3688 6.35759C18.2101 6.63605 18.6393 7.85304 17.3177 9.07002L15.0698 11.1224C14.697 11.4627 14.4824 12.1331 14.6066 12.6178L15.2505 15.1549C15.7588 17.1557 14.584 17.9395 12.6524 16.8876L9.95263 15.4231C9.4669 15.1549 8.65358 15.1549 8.16785 15.4231L5.46809 16.8876C3.53646 17.9292 2.36166 17.1557 2.86999 15.1549L3.51386 12.6178C3.61553 12.1228 3.4009 11.4524 3.02813 11.1121L0.780212 9.0597C-0.54143 7.85304 -0.112179 6.63605 1.72908 6.34728L4.60958 5.91411C5.09531 5.84192 5.67141 5.45001 5.88604 5.04779L7.47879 2.13941C8.34859 0.57177 9.7493 0.57177 10.6191 2.14972Z"/>
</svg>
