<svg width="200" height="200" viewBox="0 0 200 200" fill="none" xmlns="http://www.w3.org/2000/svg">
<path d="M122.028 100L196.805 25.2195C198.862 23.1609 199.997 20.4146 200 17.4861C200 14.5561 198.865 11.8065 196.805 9.75119L190.252 3.19997C188.192 1.13655 185.446 0.00646973 182.514 0.00646973C179.587 0.00646973 176.841 1.13655 174.78 3.19997L100.003 77.9756L25.2228 3.19997C23.1659 1.13655 20.4179 0.00646973 17.4878 0.00646973C14.561 0.00646973 11.813 1.13655 9.7561 3.19997L3.2 9.75119C-1.06667 14.0179 -1.06667 20.9577 3.2 25.2195L77.9789 100L3.2 174.777C1.14146 176.839 0.00813008 179.585 0.00813008 182.514C0.00813008 185.442 1.14146 188.189 3.2 190.249L9.75447 196.8C11.8114 198.862 14.561 199.993 17.4862 199.993C20.4163 199.993 23.1642 198.862 25.2211 196.8L100.002 122.023L174.779 196.8C176.839 198.862 179.585 199.993 182.512 199.993H182.515C185.444 199.993 188.19 198.862 190.25 196.8L196.803 190.249C198.86 188.19 199.995 185.442 199.995 182.514C199.995 179.585 198.86 176.839 196.803 174.779L122.028 100Z" fill="#ff4949"/>
</svg>
