<svg width="177" height="136" viewBox="0 0 177 136" fill="none" xmlns="http://www.w3.org/2000/svg">
<g opacity="0.2">
<path d="M355.513 135.339C355.513 213.383 276.266 276.829 178.263 276.829C80.2596 276.829 1.0127 213.383 1.0127 135.339C1.0127 57.2958 80.2596 -6.15027 178.263 -6.15027C276.266 -6.15027 355.513 57.2958 355.513 135.339Z" stroke="white"/>
<path d="M331.481 135.339C331.481 202.781 262.993 257.632 178.262 257.632C93.5316 257.632 25.0439 202.781 25.0439 135.339C25.0439 67.8974 93.5316 13.046 178.262 13.046C262.993 13.046 331.481 67.8974 331.481 135.339Z" stroke="white"/>
<path d="M304.135 135.34C304.135 190.717 247.891 235.788 178.263 235.788C108.634 235.788 52.3901 190.717 52.3901 135.34C52.3901 79.9629 108.634 34.8917 178.263 34.8917C247.891 34.8917 304.135 79.9629 304.135 135.34Z" stroke="white"/>
<path d="M276.789 135.339C276.789 178.652 232.788 213.943 178.263 213.943C123.737 213.943 79.7363 178.652 79.7363 135.339C79.7363 92.0267 123.737 56.7356 178.263 56.7356C232.788 56.7356 276.789 92.0267 276.789 135.339Z" stroke="white"/>
<path d="M250.271 135.339C250.271 166.953 218.143 192.761 178.263 192.761C138.383 192.761 106.254 166.953 106.254 135.339C106.254 103.726 138.383 77.9182 178.263 77.9182C218.143 77.9182 250.271 103.726 250.271 135.339Z" stroke="white"/>
<path d="M226.24 135.339C226.24 156.351 204.871 173.563 178.263 173.563C151.655 173.563 130.286 156.351 130.286 135.339C130.286 114.327 151.655 97.1144 178.263 97.1144C204.871 97.1144 226.24 114.327 226.24 135.339Z" stroke="white"/>
<path d="M207.013 135.339C207.013 147.868 194.252 158.205 178.263 158.205C162.274 158.205 149.513 147.868 149.513 135.339C149.513 122.81 162.274 112.474 178.263 112.474C194.252 112.474 207.013 122.81 207.013 135.339Z" stroke="white"/>
</g>
</svg>
