<svg width="28" height="23" viewBox="0 0 28 23" fill="none" xmlns="http://www.w3.org/2000/svg">
<path d="M0.887314 5.58921C0.887314 4.07486 1.44336 2.79713 2.55546 1.75601C3.66757 0.714894 4.98079 0.194336 6.49514 0.194336C8.03315 0.194336 9.34638 0.714894 10.4348 1.75601C11.5469 2.79713 12.103 4.07486 12.103 5.58921C12.103 6.32272 11.9847 7.05624 11.748 7.78975C11.5351 8.4996 11.1328 9.46973 10.5413 10.7001L4.89797 22.6611H0L2.83941 9.70634C2.24786 9.25677 1.77463 8.67706 1.4197 7.96721C1.06478 7.25736 0.887314 6.46469 0.887314 5.58921ZM16.3976 5.58921C16.3976 4.07486 16.9536 2.79713 18.0657 1.75601C19.2015 0.714894 20.5147 0.194336 22.0054 0.194336C23.5671 0.194336 24.8921 0.714894 25.9806 1.75601C27.069 2.79713 27.6132 4.07486 27.6132 5.58921C27.6132 6.32272 27.5186 7.05624 27.3293 7.78975C27.14 8.4996 26.7496 9.46973 26.158 10.7001L20.4437 22.6611H15.5457L18.4561 9.70634C17.8409 9.25677 17.344 8.67706 16.9654 7.96721C16.5869 7.25736 16.3976 6.46469 16.3976 5.58921Z" fill="#6B6F85"/>
</svg>
