<svg class="none" viewBox="0 0 89 88" fill="none" xmlns="http://www.w3.org/2000/svg">
<path class="fill" fill-rule="evenodd" clip-rule="evenodd" d="M77.7144 51.3624C77.7144 69.5401 62.9784 84.276 44.8008 84.276C26.6231 84.276 11.8872 69.5401 11.8872 51.3624C11.8872 33.1848 26.6231 18.4489 44.8008 18.4489C62.9784 18.4489 77.7144 33.1848 77.7144 51.3624ZM44.8008 69.6479C54.8995 69.6479 63.0861 61.4613 63.0861 51.3626C63.0861 41.2639 54.8995 33.0773 44.8008 33.0773C34.7021 33.0773 26.5155 41.2639 26.5155 51.3626C26.5155 61.4613 34.7021 69.6479 44.8008 69.6479ZM44.8008 76.962C58.939 76.962 70.4002 65.5008 70.4002 51.3626C70.4002 37.2244 58.939 25.7631 44.8008 25.7631C30.6626 25.7631 19.2013 37.2244 19.2013 51.3626C19.2013 65.5008 30.6626 76.962 44.8008 76.962ZM48.4578 40.3914C48.4578 38.3717 46.8205 36.7343 44.8008 36.7343C42.781 36.7343 41.1437 38.3717 41.1437 40.3914L41.1437 51.3626C41.1437 53.3823 42.781 55.0197 44.8008 55.0197C46.8205 55.0197 48.4578 53.3823 48.4578 51.3626L48.4578 40.3914Z"/>
<path class="stroke" d="M64.9146 27.5916L70.4002 22.106" stroke="#C9FDEA" stroke-width="7.31413" stroke-linecap="round"/>
<path class="stroke" d="M37.7357 8.83293C38.1524 8.44413 39.0707 8.10056 40.3481 7.85552C41.6254 7.61048 43.1905 7.47766 44.8006 7.47766C46.4107 7.47766 47.9758 7.61048 49.2532 7.85552C50.5305 8.10056 51.4488 8.44413 51.8655 8.83293" stroke-width="7.31413" stroke-linecap="round"/>
</svg>
