<svg viewBox="0 0 74 63" fill="none" xmlns="http://www.w3.org/2000/svg">
<path class="stroke" d="M11.4318 3.79187L4.11768 11.106" stroke-width="7.31413" stroke-linecap="round"/>
<path class="stroke" d="M62.6302 3.79187L69.9443 11.106" stroke-width="7.31413" stroke-linecap="round"/>
<path class="fill" fill-rule="evenodd" clip-rule="evenodd" d="M37.0309 62.3049C53.1888 62.3049 66.2874 49.2063 66.2874 33.0484C66.2874 16.8905 53.1888 3.79187 37.0309 3.79187C20.873 3.79187 7.77441 16.8905 7.77441 33.0484C7.77441 49.2063 20.873 62.3049 37.0309 62.3049ZM47.2008 26.1901C48.4625 24.613 48.2068 22.3116 46.6297 21.0499C45.0525 19.7881 42.7512 20.0439 41.4894 21.621L36.2698 28.1455L28.0884 22.6912C26.4079 21.5709 24.1373 22.025 23.017 23.7055C21.8966 25.386 22.3507 27.6566 24.0312 28.777L34.305 35.6261C36.2779 36.9414 38.9291 36.5298 40.4103 34.6782L47.2008 26.1901Z"/>
</svg>
