<svg viewBox="0 0 16 16" xmlns="http://www.w3.org/2000/svg">
<path d="M13.0518 6.82153H8.95019C8.57723 6.82153 8.21955 6.67337 7.95583 6.40965C7.6921 6.14593 7.54394 5.78824 7.54394 5.41528V1.31372C7.54394 1.28264 7.5316 1.25283 7.50962 1.23086C7.48764 1.20888 7.45784 1.19653 7.42676 1.19653H4.73145C4.23416 1.19653 3.75725 1.39408 3.40562 1.74571C3.05399 2.09734 2.85645 2.57425 2.85645 3.07153V12.4465C2.85645 12.9438 3.05399 13.4207 3.40562 13.7724C3.75725 14.124 4.23416 14.3215 4.73145 14.3215H11.2939C11.7912 14.3215 12.2681 14.124 12.6198 13.7724C12.9714 13.4207 13.1689 12.9438 13.1689 12.4465V6.93872C13.1689 6.90764 13.1566 6.87783 13.1346 6.85585C13.1126 6.83388 13.0828 6.82153 13.0518 6.82153Z"/>
<path d="M12.7945 5.78479L8.58135 1.5716C8.57315 1.56346 8.56274 1.55792 8.5514 1.55568C8.54007 1.55344 8.52833 1.5546 8.51765 1.55901C8.50697 1.56343 8.49784 1.5709 8.4914 1.58049C8.48496 1.59008 8.48149 1.60136 8.48145 1.61291V5.41594C8.48145 5.54026 8.53083 5.65949 8.61874 5.7474C8.70665 5.8353 8.82588 5.88469 8.9502 5.88469H12.7532C12.7648 5.88464 12.7761 5.88118 12.7856 5.87474C12.7952 5.8683 12.8027 5.85916 12.8071 5.84849C12.8115 5.83781 12.8127 5.82607 12.8105 5.81473C12.8082 5.8034 12.8027 5.79298 12.7945 5.78479Z"/>
</svg>
