<svg viewBox="0 0 12 15" xmlns="http://www.w3.org/2000/svg">
<path fill-rule="evenodd" clip-rule="evenodd" d="M3.28243 0.967263L6.12596 0.559294C8.56547 0.209293 9.78522 0.0342916 10.5773 0.720827C11.3693 1.40736 11.3693 2.6396 11.3693 5.10408V6.72741H6.93548L8.88398 4.50367L7.73291 3.49507L4.67202 6.98833L4.23014 7.49263L4.67202 7.99693L7.73291 11.4902L8.88398 10.4816L6.93548 8.25786H11.3693V9.8803C11.3693 12.3448 11.3693 13.577 10.5773 14.2636C9.78522 14.9501 8.56547 14.7751 6.12597 14.4251L3.28244 14.0171H3.28243C2.03026 13.8375 1.40417 13.7476 1.03021 13.3162C0.65625 12.8848 0.65625 12.2523 0.65625 10.9873V3.99712C0.65625 2.73213 0.65625 2.09963 1.03021 1.66819C1.40417 1.23674 2.03026 1.14692 3.28243 0.967263Z"/>
</svg>
