<svg viewBox="0 0 16 16" xmlns="http://www.w3.org/2000/svg">
<path d="M8.17558 3.22627C8.13197 3.18454 8.07393 3.16125 8.01357 3.16125C7.95321 3.16125 7.89518 3.18454 7.85156 3.22627L2.45801 8.37871C2.4351 8.40062 2.41688 8.42695 2.40444 8.4561C2.392 8.48526 2.38561 8.51664 2.38564 8.54834L2.38477 13.3841C2.38477 13.6327 2.48354 13.8712 2.65935 14.047C2.83517 14.2228 3.07362 14.3216 3.32227 14.3216H6.13769C6.26201 14.3216 6.38124 14.2722 6.46915 14.1843C6.55706 14.0964 6.60644 13.9771 6.60644 13.8528V9.86845C6.60644 9.80629 6.63114 9.74668 6.67509 9.70272C6.71904 9.65877 6.77866 9.63408 6.84082 9.63408H9.18457C9.24673 9.63408 9.30634 9.65877 9.3503 9.70272C9.39425 9.74668 9.41894 9.80629 9.41894 9.86845V13.8528C9.41894 13.9771 9.46833 14.0964 9.55624 14.1843C9.64414 14.2722 9.76337 14.3216 9.88769 14.3216H12.7019C12.9506 14.3216 13.189 14.2228 13.3649 14.047C13.5407 13.8712 13.6394 13.6327 13.6394 13.3841V8.54834C13.6395 8.51664 13.6331 8.48526 13.6207 8.4561C13.6082 8.42695 13.59 8.40062 13.5671 8.37871L8.17558 3.22627Z"/>
<path d="M14.8953 7.41247L12.7039 5.31599V2.13464C12.7039 2.01032 12.6545 1.89109 12.5666 1.80319C12.4787 1.71528 12.3595 1.66589 12.2352 1.66589H10.8289C10.7046 1.66589 10.5854 1.71528 10.4975 1.80319C10.4095 1.89109 10.3602 2.01032 10.3602 2.13464V3.07214L8.66329 1.44968C8.5045 1.28914 8.26837 1.19714 8.01319 1.19714C7.7589 1.19714 7.52335 1.28914 7.36456 1.44998L1.13312 7.41189C0.95089 7.58767 0.928038 7.87683 1.09386 8.06726C1.1355 8.11533 1.18648 8.15442 1.24371 8.18216C1.30094 8.20989 1.36321 8.22569 1.42674 8.2286C1.49027 8.2315 1.55373 8.22145 1.61325 8.19905C1.67277 8.17666 1.72711 8.14238 1.77296 8.09831L7.85206 2.28933C7.89568 2.24761 7.95371 2.22432 8.01407 2.22432C8.07443 2.22432 8.13246 2.24761 8.17608 2.28933L14.2558 8.09831C14.3453 8.1842 14.4653 8.23107 14.5893 8.22865C14.7134 8.22624 14.8314 8.17473 14.9176 8.08542C15.0975 7.8991 15.0825 7.59148 14.8953 7.41247Z"/>
</svg>
