<svg viewBox="0 0 16 16" xmlns="http://www.w3.org/2000/svg">
<path d="M10.258 2.15078C9.68792 1.53525 8.89163 1.19629 8.01272 1.19629C7.12913 1.19629 6.3302 1.5332 5.76272 2.14492C5.18909 2.76338 4.9096 3.60391 4.97522 4.51152C5.1053 6.30215 6.4679 7.75879 8.01272 7.75879C9.55755 7.75879 10.9178 6.30244 11.0499 4.51211C11.1164 3.61269 10.8352 2.77393 10.258 2.15078Z"/>
<path d="M13.1691 14.3203H2.85661C2.72163 14.3221 2.58796 14.2937 2.46531 14.2373C2.34267 14.1809 2.23414 14.0979 2.14763 13.9942C1.9572 13.7666 1.88044 13.4558 1.93728 13.1414C2.18454 11.7697 2.95622 10.6175 4.16911 9.80859C5.24665 9.09053 6.61159 8.69531 8.01286 8.69531C9.41413 8.69531 10.7791 9.09082 11.8566 9.80859C13.0695 10.6172 13.8412 11.7694 14.0884 13.1411C14.1453 13.4555 14.0685 13.7663 13.8781 13.9939C13.7916 14.0976 13.6831 14.1807 13.5604 14.2372C13.4378 14.2936 13.3041 14.322 13.1691 14.3203Z"/>
</svg>
