<svg viewBox="0 0 16 16" xmlns="http://www.w3.org/2000/svg">
<path d="M14.5059 1.38008C14.5006 1.35417 14.488 1.33032 14.4696 1.31133C14.4511 1.29234 14.4277 1.27899 14.4019 1.27285C12.686 0.853323 8.72128 2.34834 6.57324 4.49551C6.19012 4.87553 5.84085 5.28823 5.52939 5.72891C4.86699 5.67031 4.20459 5.71924 3.64004 5.96533C2.04717 6.66641 1.5834 8.4957 1.4542 9.28262C1.44687 9.32569 1.44963 9.36987 1.46227 9.41169C1.47491 9.45351 1.49708 9.49183 1.52704 9.52364C1.557 9.55544 1.59392 9.57986 1.63491 9.59497C1.67591 9.61009 1.71985 9.61548 1.76328 9.61074L4.32119 9.32861C4.32301 9.52146 4.33465 9.71409 4.35605 9.90576C4.36892 10.0389 4.42801 10.1632 4.52304 10.2573L5.51357 11.2455C5.60773 11.3404 5.73207 11.3995 5.86513 11.4125C6.05573 11.4338 6.24728 11.4455 6.43906 11.4474L6.15839 14.002C6.15371 14.0455 6.15915 14.0894 6.17429 14.1303C6.18942 14.1713 6.21384 14.2082 6.24563 14.2381C6.27742 14.2681 6.31571 14.2903 6.3575 14.3029C6.3993 14.3156 6.44346 14.3184 6.48652 14.3111C7.27197 14.1852 9.10449 13.7214 9.80146 12.1285C10.0476 11.564 10.0979 10.9048 10.0411 10.2456C10.4829 9.93413 10.8966 9.58476 11.2777 9.20146C13.4325 7.05752 14.919 3.18125 14.5059 1.38008ZM9.12792 6.64385C8.93116 6.44722 8.79714 6.19665 8.74281 5.92384C8.68847 5.65103 8.71627 5.36823 8.82267 5.11122C8.92908 4.85421 9.10932 4.63453 9.3406 4.47996C9.57188 4.3254 9.8438 4.2429 10.122 4.2429C10.4001 4.2429 10.6721 4.3254 10.9033 4.47996C11.1346 4.63453 11.3149 4.85421 11.4213 5.11122C11.5277 5.36823 11.5555 5.65103 11.5011 5.92384C11.4468 6.19665 11.3128 6.44722 11.116 6.64385C10.9855 6.77451 10.8306 6.87816 10.66 6.94888C10.4895 7.01961 10.3066 7.05601 10.122 7.05601C9.93732 7.05601 9.75448 7.01961 9.58391 6.94888C9.41335 6.87816 9.2584 6.77451 9.12792 6.64385Z"/>
<path d="M5.44629 11.9618C5.28574 12.1227 5.02822 12.1854 4.71826 12.239C4.02187 12.3576 3.40693 11.7559 3.53203 11.0519C3.57978 10.785 3.721 10.4108 3.80889 10.3229C3.8281 10.3041 3.84088 10.2797 3.84543 10.2532C3.84998 10.2267 3.84605 10.1994 3.83421 10.1752C3.82238 10.1511 3.80323 10.1312 3.77948 10.1186C3.75574 10.1059 3.72861 10.1011 3.70195 10.1047C3.31253 10.1523 2.95023 10.3289 2.67275 10.6063C1.98398 11.2956 1.91895 13.8535 1.91895 13.8535C1.91895 13.8535 4.47832 13.7885 5.16709 13.0991C5.44531 12.8219 5.62209 12.459 5.66894 12.069C5.67978 11.9466 5.53066 11.8736 5.44629 11.9618Z"/>
</svg>
