<svg viewBox="0 0 14 14" xmlns="http://www.w3.org/2000/svg">
<path d="M13.2695 2.79015C13.2357 2.7245 13.187 2.66775 13.1271 2.62453C13.0673 2.5813 12.9981 2.55282 12.9252 2.54139C12.8522 2.52997 12.7776 2.53593 12.7075 2.5588C12.6373 2.58166 12.5735 2.62078 12.5213 2.67296L10.7213 4.47413C10.6329 4.56121 10.5138 4.61002 10.3898 4.61002C10.2657 4.61002 10.1466 4.56121 10.0583 4.47413L9.28015 3.69483C9.23661 3.6513 9.20207 3.59963 9.17851 3.54275C9.15494 3.48587 9.14282 3.42491 9.14282 3.36334C9.14282 3.30177 9.15494 3.24081 9.17851 3.18393C9.20207 3.12705 9.23661 3.07537 9.28015 3.03185L11.0725 1.23917C11.1263 1.18545 11.1661 1.11947 11.1887 1.04691C11.2113 0.974356 11.2159 0.897404 11.2021 0.822681C11.1883 0.747958 11.1566 0.677705 11.1096 0.617972C11.0626 0.55824 11.0019 0.51082 10.9325 0.479795C9.57868 -0.125478 7.88884 0.190342 6.82331 1.24796C5.91804 2.14679 5.64822 3.55128 6.08357 5.10138C6.10704 5.18404 6.10717 5.27158 6.08396 5.35432C6.06074 5.43705 6.01508 5.51175 5.95202 5.57013L1.07468 10.0247C0.884675 10.1953 0.731414 10.4028 0.624249 10.6346C0.517084 10.8664 0.458261 11.1176 0.451369 11.3728C0.444476 11.6281 0.489658 11.8821 0.58416 12.1193C0.678661 12.3565 0.8205 12.572 1.00102 12.7526C1.18155 12.9332 1.39697 13.0752 1.63416 13.1698C1.87134 13.2644 2.12531 13.3097 2.38058 13.3029C2.63584 13.2961 2.88705 13.2374 3.11888 13.1303C3.35071 13.0233 3.5583 12.8701 3.72898 12.6802L8.23132 7.792C8.28886 7.72976 8.36229 7.6844 8.44371 7.66081C8.52512 7.63722 8.61143 7.63628 8.69333 7.65811C9.13464 7.77903 9.58986 7.84177 10.0474 7.84474C11.0259 7.84474 11.8846 7.52804 12.504 6.91778C13.6509 5.7878 13.8258 3.8712 13.2695 2.79015ZM2.4279 12.3594C2.23496 12.3804 2.04023 12.3411 1.87059 12.2468C1.70095 12.1525 1.56478 12.0078 1.48085 11.8328C1.39692 11.6578 1.36939 11.461 1.40204 11.2697C1.43469 11.0784 1.52593 10.9019 1.66315 10.7646C1.80037 10.6274 1.97682 10.5361 2.16813 10.5033C2.35945 10.4706 2.55621 10.4981 2.73125 10.5819C2.90629 10.6658 3.05099 10.8019 3.14537 10.9715C3.23976 11.1411 3.27917 11.3359 3.25818 11.5288C3.23508 11.7411 3.14019 11.9392 2.98921 12.0902C2.83823 12.2412 2.6402 12.3362 2.4279 12.3594Z"/>
</svg>
