<svg viewBox="0 0 16 16" xmlns="http://www.w3.org/2000/svg">
<path d="M3.55957 14.79H2.62207C2.43559 14.79 2.25675 14.716 2.12489 14.5841C1.99302 14.4522 1.91895 14.2734 1.91895 14.0869V9.86816C1.91895 9.68168 1.99302 9.50284 2.12489 9.37098C2.25675 9.23912 2.43559 9.16504 2.62207 9.16504H3.55957C3.74605 9.16504 3.92489 9.23912 4.05675 9.37098C4.18862 9.50284 4.26269 9.68168 4.26269 9.86816V14.0869C4.26269 14.2734 4.18862 14.4522 4.05675 14.5841C3.92489 14.716 3.74605 14.79 3.55957 14.79Z"/>
<path d="M10.1221 14.79H9.18457C8.99809 14.79 8.81925 14.716 8.68739 14.5841C8.55552 14.4522 8.48145 14.2734 8.48145 14.0869V7.05566C8.48145 6.86918 8.55552 6.69034 8.68739 6.55848C8.81925 6.42662 8.99809 6.35254 9.18457 6.35254H10.1221C10.3086 6.35254 10.4874 6.42662 10.6193 6.55848C10.7511 6.69034 10.8252 6.86918 10.8252 7.05566V14.0869C10.8252 14.2734 10.7511 14.4522 10.6193 14.5841C10.4874 14.716 10.3086 14.79 10.1221 14.79Z"/>
<path d="M13.4033 14.7899H12.4658C12.2793 14.7899 12.1005 14.7158 11.9686 14.584C11.8368 14.4521 11.7627 14.2733 11.7627 14.0868V3.77429C11.7627 3.58781 11.8368 3.40897 11.9686 3.27711C12.1005 3.14525 12.2793 3.07117 12.4658 3.07117H13.4033C13.5898 3.07117 13.7686 3.14525 13.9005 3.27711C14.0324 3.40897 14.1064 3.58781 14.1064 3.77429V14.0868C14.1064 14.2733 14.0324 14.4521 13.9005 14.584C13.7686 14.7158 13.5898 14.7899 13.4033 14.7899Z"/>
<path d="M6.84082 14.79H5.90332C5.71684 14.79 5.538 14.716 5.40614 14.5841C5.27427 14.4522 5.2002 14.2734 5.2002 14.0869V1.43066C5.2002 1.24418 5.27427 1.06534 5.40614 0.93348C5.538 0.801618 5.71684 0.727539 5.90332 0.727539H6.84082C7.0273 0.727539 7.20614 0.801618 7.338 0.93348C7.46987 1.06534 7.54394 1.24418 7.54394 1.43066V14.0869C7.54394 14.2734 7.46987 14.4522 7.338 14.5841C7.20614 14.716 7.0273 14.79 6.84082 14.79Z"/>
</svg>
